<?xml version="1.0" encoding="UTF-8"?> <svg xmlns="http://www.w3.org/2000/svg" width="144" height="30" viewBox="0 0 144 30" fill="none"><g clip-path="url(#clip0_578_48581)"><path d="M53.8499 20.7733V17.4976C53.8499 14.7587 52.1052 12.9389 49.5063 12.9389C46.9074 12.9389 45.1627 14.7587 45.1627 17.4976V20.7733C45.1627 23.5121 46.9074 25.332 49.5063 25.332C52.1052 25.332 53.8499 23.5121 53.8499 20.7733ZM39.7832 20.3547V17.9525C39.7832 12.2746 43.7542 8.37109 49.5063 8.37109C55.2584 8.37109 59.2295 12.2746 59.2295 17.9525V20.3547C59.2295 26.0326 55.2584 29.9362 49.5063 29.9362C43.7542 29.9362 39.7832 26.0326 39.7832 20.3547Z" fill="#FF563C"></path><path d="M61.5547 29.5087V8.78987H66.8161V13.9673L68.6335 11.2921C69.9148 9.38132 71.3233 8.30762 73.8494 8.30762C77.6569 8.30762 80.174 10.9555 80.174 14.9773V29.536H74.7854V14.9955C74.7854 13.9218 74.2493 13.2485 73.286 13.2485C72.4591 13.2485 71.9593 13.8308 71.5413 14.4405L66.9069 21.0647V29.4814L61.5547 29.5087Z" fill="#FF563C"></path><path d="M91.2331 23.9489L96.3219 17.4885V13.3393H91.5966C89.0704 13.3393 88.0345 14.5039 88.0345 17.3611V23.2119C88.0345 24.3766 88.5706 25.0317 89.5339 25.0317C90.2426 25.0408 90.7788 24.5312 91.2331 23.9489ZM82.6641 23.3393V17.4885C82.6641 11.6832 85.69 8.78056 91.6511 8.78056H96.331V0.491211H101.71V29.5085H96.4491V24.0763L93.9774 27.3065C92.5689 29.1263 91.1968 29.9999 88.9341 29.9999C85.1085 30.0181 82.6641 27.3702 82.6641 23.3393Z" fill="#FF563C"></path><path d="M109.581 16.961H117.85V16.7972C117.85 14.2222 116.414 12.8664 113.724 12.8664C111.035 12.8664 109.581 14.2313 109.581 16.7972V16.961ZM114.088 29.9183C108.081 29.9183 104.201 26.1512 104.201 20.3368V17.5161C104.201 12.0839 108.1 8.3623 113.724 8.3623C119.349 8.3623 123.03 11.9292 123.03 17.1157V21.3104H109.581V21.3832C109.581 23.9128 111.28 25.4415 114.015 25.4415C115.714 25.4415 117.168 24.4497 118.159 23.1121L121.885 26.2149C120.222 28.3441 118.013 29.9183 114.088 29.9183Z" fill="#FF563C"></path><path d="M130.226 16.961H138.513V16.7972C138.513 14.2222 137.059 12.8664 134.37 12.8664C131.68 12.8664 130.226 14.2313 130.226 16.7972V16.961ZM134.742 29.9183C128.736 29.9183 124.855 26.1512 124.855 20.3368V17.5161C124.855 12.0839 128.754 8.3623 134.379 8.3623C140.004 8.3623 143.684 11.9292 143.684 17.1157V21.3104H130.235V21.3832C130.235 23.9128 131.934 25.4415 134.669 25.4415C136.369 25.4415 137.823 24.4497 138.813 23.1121L142.539 26.2149C140.867 28.3441 138.686 29.9183 134.742 29.9183Z" fill="#FF563C"></path><path d="M4.97061 29.5086H0V8.78981H5.26139V15.6324C5.26139 15.6324 8.30555 7.57962 9.38691 4.68608C10.4683 1.79254 12.4311 0 15.9568 0C19.9279 0 22.4086 2.64786 22.4086 6.6697V17.9982C22.4086 17.9982 23.49 15.778 24.8349 12.9663C26.1797 10.1456 27.8154 8.28025 31.0868 8.28025C35.0123 8.28025 37.4568 10.9281 37.4568 14.95V29.5086H32.0772V14.9955C32.0772 13.9217 31.5865 13.2484 30.6687 13.2484C29.751 13.2484 29.442 13.8944 29.0513 14.7043C28.6514 15.5141 21.9906 29.5086 21.9906 29.5086H17.02V6.7152C17.02 5.64149 16.4839 4.96815 15.5207 4.96815C14.5574 4.96815 14.1031 5.66879 13.7759 6.49682C13.467 7.33394 4.97061 29.5086 4.97061 29.5086Z" fill="#FF563C"></path></g><defs><clipPath id="clip0_578_48581"><rect width="143.684" height="30" fill="white"></rect></clipPath></defs></svg> 